<?xml version="1.0" standalone="no"?>
<!DOCTYPE svg PUBLIC "-//W3C//DTD SVG 20010904//EN"
 "http://www.w3.org/TR/2001/REC-SVG-20010904/DTD/svg10.dtd">
<svg version="1.0" xmlns="http://www.w3.org/2000/svg"
 width="5058.000000pt" height="599.000000pt" viewBox="0 0 5058.000000 599.000000"
 preserveAspectRatio="xMidYMid meet">

<g transform="translate(0.000000,599.000000) scale(0.100000,-0.100000)"
fill="#000000" stroke="none">
<path d="M2505 5899 c-762 -63 -1305 -383 -1560 -922 -117 -247 -175 -550
-162 -847 18 -391 128 -673 354 -911 322 -338 746 -512 1863 -764 376 -85 496
-122 645 -195 186 -91 280 -180 334 -319 29 -73 43 -208 31 -310 -21 -184 -74
-296 -201 -423 -76 -76 -100 -93 -200 -142 -185 -90 -371 -126 -654 -126 -424
1 -737 109 -955 329 -144 146 -220 309 -237 509 l-6 72 -548 0 -549 0 0 -50
c0 -82 20 -237 46 -363 66 -314 207 -586 418 -805 323 -335 769 -531 1390
-609 166 -21 677 -24 841 -5 1069 124 1655 629 1756 1511 15 136 7 445 -16
571 -48 268 -153 484 -322 661 -286 299 -700 469 -1851 759 -455 114 -590 157
-745 238 -175 90 -278 198 -328 342 -32 92 -32 265 -1 365 56 183 205 320 427
394 154 51 264 65 510 65 226 1 309 -8 453 -46 305 -79 501 -265 588 -558 10
-35 44 -208 44 -226 0 -2 243 -4 540 -4 l540 0 0 34 c0 19 -7 88 -15 153 -103
788 -610 1340 -1419 1543 -311 78 -677 106 -1011 79z"/>
<path d="M15418 4784 l-3 -1007 -59 77 c-32 42 -103 119 -158 171 -195 185
-391 288 -661 347 -137 30 -451 32 -597 5 -410 -77 -744 -301 -981 -657 -321
-481 -449 -1226 -338 -1957 130 -857 589 -1446 1264 -1623 202 -53 391 -69
585 -50 408 39 713 214 930 534 l40 59 0 -89 c0 -49 3 -160 7 -246 l6 -158
509 0 508 0 0 2800 0 2800 -525 0 -525 0 -2 -1006z m-590 -1343 c330 -96 522
-362 603 -836 30 -174 38 -568 15 -718 -61 -386 -245 -680 -516 -825 -109 -58
-197 -83 -320 -89 -233 -12 -427 63 -596 232 -255 253 -375 662 -344 1174 17
287 58 470 144 646 85 172 189 282 341 358 135 67 244 88 445 83 120 -3 172
-9 228 -25z"/>
<path d="M16780 5285 l0 -505 535 0 535 0 0 505 0 505 -535 0 -535 0 0 -505z"/>
<path d="M32620 2990 l0 -2800 535 0 535 0 0 2800 0 2800 -535 0 -535 0 0
-2800z"/>
<path d="M24130 2960 l0 -2770 555 0 555 0 0 1086 0 1086 718 -5 c614 -4 729
-7 802 -21 335 -65 480 -214 519 -531 7 -58 11 -361 11 -852 l0 -763 555 0
555 0 0 888 c0 712 -3 908 -15 995 -51 383 -210 599 -540 732 l-94 38 74 32
c237 103 454 313 578 561 39 76 94 244 119 358 20 88 22 130 22 336 0 207 -2
247 -22 340 -70 320 -204 573 -417 785 -276 277 -633 431 -1075 465 -83 6
-667 10 -1517 10 l-1383 0 0 -2770z m2805 1781 c236 -49 380 -152 471 -336 61
-123 77 -206 77 -385 -1 -239 -50 -378 -183 -511 -124 -125 -280 -188 -515
-209 -60 -5 -433 -10 -827 -10 l-718 0 0 735 0 735 803 0 c746 0 808 -2 892
-19z"/>
<path d="M5240 3523 c0 -1232 4 -1918 11 -1993 66 -726 448 -1212 1083 -1380
559 -147 1194 -53 1577 234 107 81 248 228 317 331 146 219 241 498 271 794 7
60 11 368 11 742 l0 639 -495 0 -495 0 0 -570 c0 -586 -5 -699 -41 -838 -60
-241 -225 -406 -440 -442 -89 -15 -274 -8 -340 13 -189 61 -317 210 -369 429
-37 157 -40 244 -40 1151 l0 887 1110 0 1110 0 0 385 0 385 -1110 0 -1110 0 0
555 0 555 -525 0 -525 0 0 -1877z"/>
<path d="M19827 4385 c-419 -53 -768 -193 -1049 -422 -100 -81 -254 -247 -330
-353 -77 -109 -182 -305 -231 -436 -177 -462 -211 -1060 -90 -1569 158 -669
571 -1157 1167 -1380 490 -182 1096 -190 1586 -20 287 100 509 242 720 461
307 319 491 742 551 1264 17 151 15 508 -5 661 -71 555 -262 963 -605 1291
-272 261 -627 428 -1046 493 -149 23 -521 29 -668 10z m569 -934 c169 -42 289
-108 395 -218 147 -151 228 -334 276 -621 28 -165 25 -612 -5 -776 -54 -291
-168 -518 -326 -647 -74 -61 -236 -141 -330 -163 -168 -41 -412 -39 -577 3
-312 80 -520 305 -614 666 -42 161 -58 317 -58 550 0 460 90 770 285 981 112
121 286 208 482 240 115 19 366 11 472 -15z"/>
<path d="M30335 4393 c-354 -31 -669 -137 -935 -314 -136 -90 -344 -300 -439
-443 -169 -255 -276 -554 -333 -931 -21 -141 -18 -724 5 -885 109 -776 404
-1258 932 -1520 298 -147 608 -213 1020 -214 249 -1 347 10 540 59 323 82 554
213 786 444 158 158 253 293 347 491 47 99 122 293 122 316 0 2 -247 4 -550 4
-458 0 -550 -2 -550 -14 0 -26 -70 -151 -111 -199 -55 -63 -162 -138 -252
-175 -210 -88 -500 -87 -699 1 -213 95 -374 278 -468 535 -28 78 -62 238 -75
354 l-6 58 1385 0 1386 0 0 88 c-1 232 -34 558 -81 796 -94 468 -267 823 -529
1087 -317 317 -750 473 -1299 467 -86 -1 -174 -3 -196 -5z m309 -863 c384 -56
657 -372 692 -804 l7 -86 -818 0 -818 0 6 73 c14 162 78 341 171 481 170 256
452 380 760 336z"/>
<path d="M35600 4393 c-628 -61 -1079 -312 -1385 -768 -256 -381 -370 -879
-344 -1495 52 -1240 590 -1897 1664 -2031 156 -20 517 -17 650 4 420 69 744
232 1010 509 131 136 219 261 305 433 54 109 140 324 140 351 0 2 -247 4 -550
4 -458 0 -550 -2 -550 -14 0 -26 -70 -151 -111 -199 -55 -63 -162 -138 -252
-175 -210 -88 -500 -87 -699 1 -307 136 -499 450 -543 885 l-6 62 1386 0 1385
0 0 73 c0 39 -5 146 -10 237 -81 1313 -626 2017 -1639 2120 -95 9 -368 11
-451 3z m399 -883 c345 -97 560 -383 597 -792 l7 -78 -820 0 -819 0 9 77 c49
426 307 741 662 809 95 18 268 11 364 -16z"/>
<path d="M39415 4393 c-515 -42 -866 -171 -1115 -410 -103 -98 -167 -183 -229
-303 -96 -187 -160 -450 -161 -658 l0 -72 492 2 492 3 23 99 c48 207 151 350
307 426 136 67 182 75 416 74 177 0 216 -3 283 -22 169 -47 287 -129 342 -239
27 -53 30 -67 30 -158 0 -293 -145 -383 -755 -470 -578 -81 -905 -162 -1143
-282 -121 -60 -194 -111 -282 -194 -158 -151 -254 -338 -307 -601 -20 -100
-23 -142 -23 -358 1 -234 2 -249 28 -345 119 -439 445 -699 982 -782 170 -26
492 -24 657 6 346 61 614 186 815 382 l62 61 4 -34 c14 -96 48 -279 57 -302
l10 -26 495 0 496 0 -4 1437 c-3 1570 -1 1497 -62 1750 -80 334 -252 591 -507
757 -211 137 -501 225 -848 256 -105 9 -458 11 -555 3z m902 -2493 c-6 -279
-15 -339 -68 -466 -62 -149 -161 -276 -290 -374 -161 -121 -347 -186 -559
-196 -326 -15 -513 106 -551 356 -30 196 32 395 155 494 140 114 293 170 686
251 343 71 547 141 607 207 17 19 18 19 22 2 2 -11 1 -134 -2 -274z"/>
<path d="M43120 4394 c-251 -22 -436 -56 -615 -114 -469 -153 -743 -457 -810
-900 -29 -185 -13 -409 40 -565 55 -165 127 -276 261 -405 257 -247 584 -381
1473 -605 146 -37 297 -78 335 -92 174 -62 283 -140 334 -238 24 -44 27 -61
27 -150 0 -120 -21 -172 -97 -247 -96 -94 -252 -149 -479 -169 -351 -31 -676
62 -827 237 -73 84 -131 233 -132 337 l0 27 -551 0 -551 0 7 -77 c29 -339 149
-599 379 -829 215 -215 471 -350 826 -438 518 -127 1148 -110 1597 45 492 170
776 485 870 964 26 134 24 417 -4 545 -69 316 -238 525 -548 675 -159 77 -321
128 -870 275 -554 149 -693 193 -837 267 -168 86 -233 174 -233 313 1 215 172
320 550 336 290 13 513 -36 641 -141 81 -67 157 -218 179 -357 l6 -38 509 0
510 0 0 44 c0 71 -38 273 -71 381 -160 520 -550 806 -1229 900 -110 15 -582
28 -690 19z"/>
<path d="M46985 4393 c-22 -2 -87 -10 -145 -19 -560 -82 -1000 -362 -1270
-805 -140 -230 -242 -530 -287 -844 -26 -184 -26 -688 1 -890 55 -431 162
-748 347 -1025 84 -127 282 -325 408 -409 234 -155 507 -251 851 -297 159 -22
525 -25 660 -5 705 100 1210 517 1449 1196 17 48 31 91 31 96 0 5 -222 9 -550
9 -440 0 -550 -3 -550 -13 0 -7 -16 -46 -36 -87 -72 -152 -237 -273 -442 -326
-123 -32 -314 -36 -432 -9 -326 75 -558 325 -653 701 -14 56 -28 134 -32 175
-3 41 -8 84 -11 97 l-4 22 1386 0 1387 0 -6 193 c-25 731 -195 1290 -508 1674
-262 320 -652 513 -1138 562 -95 10 -362 12 -456 4z m310 -863 c89 -13 219
-58 293 -101 31 -19 98 -74 147 -124 73 -72 100 -108 137 -180 25 -49 56 -119
67 -155 24 -74 51 -224 51 -287 l0 -43 -816 0 -817 0 6 68 c12 119 53 260 111
377 91 182 203 298 361 375 148 72 293 94 460 70z"/>
<path d="M8760 2902 c0 -926 4 -1425 11 -1498 38 -382 172 -693 401 -930 187
-193 399 -308 673 -363 390 -78 857 11 1139 218 139 102 253 220 342 355 l39
59 3 -276 2 -277 505 0 505 0 0 2050 0 2050 -525 0 -525 0 0 -1187 c0 -730 -4
-1230 -10 -1298 -26 -277 -127 -499 -292 -636 -79 -66 -218 -132 -323 -154
-163 -35 -396 -18 -523 36 -158 68 -271 211 -324 412 l-22 82 -3 1373 -4 1372
-534 0 -535 0 0 -1388z"/>
<path d="M16780 2240 l0 -2050 535 0 535 0 0 2050 0 2050 -535 0 -535 0 0
-2050z"/>
<path d="M49830 1131 c-82 -26 -118 -48 -183 -109 -72 -69 -112 -138 -137
-238 -80 -311 81 -615 358 -673 224 -47 443 56 536 251 43 91 56 154 56 270 0
246 -125 435 -331 499 -80 25 -222 25 -299 0z"/>
</g>
</svg>
